<svg width="347" height="80" viewBox="0 0 347 80" fill="none" xmlns="http://www.w3.org/2000/svg">
<path d="M334.439 19.0005C336.578 19.0005 338.558 19.5351 340.38 20.6044C342.201 21.6736 343.647 23.1191 344.716 24.9407C345.785 26.7624 346.32 28.7425 346.32 30.881V48.6424C346.32 50.7808 345.785 52.7807 344.716 54.642C343.647 56.4637 342.201 57.9092 340.38 58.9784C338.558 60.0476 336.578 60.5823 334.439 60.5823H321.965H318.807C318.254 60.5823 317.807 60.1345 317.807 59.5823V20.0005C317.807 19.4482 318.254 19.0005 318.807 19.0005H326.123H334.439ZM338.004 30.881C338.004 29.891 337.647 29.0593 336.934 28.3861C336.261 27.6733 335.429 27.3168 334.439 27.3168H327.123C326.571 27.3168 326.123 27.7646 326.123 28.3168V51.2065C326.123 51.7588 326.571 52.2065 327.123 52.2065H334.439C335.429 52.2065 336.261 51.8699 336.934 51.1967C337.647 50.4838 338.004 49.6324 338.004 48.6424V30.881Z" fill="white"/>
<path d="M285.56 27.3168C285.008 27.3168 284.56 27.7646 284.56 28.3168V33.6234C284.56 34.1756 285.008 34.6234 285.56 34.6234H301.381C301.934 34.6234 302.381 35.0711 302.381 35.6234V41.9397C302.381 42.492 301.934 42.9397 301.381 42.9397H285.56C285.008 42.9397 284.56 43.3874 284.56 43.9397V51.2659C284.56 51.8182 285.008 52.2659 285.56 52.2659H303.757C304.31 52.2659 304.757 52.7136 304.757 53.2659V59.5823C304.757 60.1345 304.31 60.5823 303.757 60.5823H277.244C276.692 60.5823 276.244 60.1345 276.244 59.5823V42.9397V27.3168V20.0005C276.244 19.4482 276.692 19.0005 277.244 19.0005H303.757C304.31 19.0005 304.757 19.4482 304.757 20.0005V26.3168C304.757 26.8691 304.31 27.3168 303.757 27.3168H285.56Z" fill="white"/>
<path d="M263.197 26.3168C263.197 26.8691 262.75 27.3168 262.197 27.3168H254.099C253.547 27.3168 253.099 27.7646 253.099 28.3168V59.5823C253.099 60.1345 252.651 60.5823 252.099 60.5823H245.783C245.23 60.5823 244.783 60.1345 244.783 59.5823V28.3168C244.783 27.7646 244.335 27.3168 243.783 27.3168H235.684C235.132 27.3168 234.684 26.8691 234.684 26.3168V20.0005C234.684 19.4482 235.132 19.0005 235.684 19.0005H253.099H262.197C262.75 19.0005 263.197 19.4482 263.197 20.0005V26.3168Z" fill="white"/>
<path d="M220.634 19.0005C221.187 19.0005 221.634 19.4482 221.634 20.0005V31.0779C221.634 31.297 221.562 31.51 221.43 31.6842L211.741 44.3938C211.608 44.568 211.536 44.781 211.536 45.0001V59.5823C211.536 60.1346 211.088 60.5823 210.536 60.5823H204.22C203.667 60.5823 203.22 60.1345 203.22 59.5823V45.0151C203.22 44.7869 203.141 44.5655 202.998 44.3877L193.342 32.4031C193.199 32.2254 193.121 32.004 193.121 31.7757V20.0005C193.121 19.4482 193.569 19.0005 194.121 19.0005H200.437C200.99 19.0005 201.437 19.4482 201.437 20.0005V28.8081C201.437 29.0348 201.514 29.2548 201.656 29.432L206.514 35.5169C206.922 36.0273 207.701 36.0165 208.094 35.4949L213.117 28.8315C213.247 28.6581 213.318 28.4468 213.318 28.2296V20.0005C213.318 19.4482 213.766 19.0005 214.318 19.0005H220.634Z" fill="white"/>
<path d="M167.567 39.2662C167.369 39.5881 167.369 39.9946 167.567 40.3166L179.133 59.0571C179.544 59.7233 179.065 60.5823 178.282 60.5823H170.832C170.485 60.5823 170.162 60.4018 169.98 60.1057L160.089 44.004C160.068 43.9702 160.031 43.9496 159.992 43.9496V43.9496C159.929 43.9496 159.877 44.0007 159.877 44.0638V59.5823C159.877 60.1345 159.43 60.5823 158.877 60.5823H152.561C152.009 60.5823 151.561 60.1345 151.561 59.5823V20.0005C151.561 19.4482 152.009 19.0005 152.561 19.0005H158.877C159.43 19.0005 159.877 19.4482 159.877 20.0005V35.5189C159.877 35.582 159.929 35.6332 159.992 35.6332V35.6332C160.031 35.6332 160.068 35.6126 160.089 35.5787L169.98 19.4771C170.162 19.1809 170.485 19.0005 170.832 19.0005H178.282C179.065 19.0005 179.544 19.8594 179.133 20.5257L167.567 39.2662Z" fill="white"/>
<path d="M117.317 46.5633C117.87 46.5633 118.317 47.011 118.317 47.5633V48.3453C118.317 49.4146 118.694 50.3452 119.446 51.1373C120.238 51.8897 121.169 52.2659 122.238 52.2659H126.218C127.406 52.2659 128.356 51.9491 129.069 51.3155C129.822 50.6818 130.198 49.8898 130.198 48.9394C130.198 47.6721 129.584 46.6029 128.356 45.7316C127.129 44.8208 125.188 43.7515 122.535 42.5239C120 41.3754 117.941 40.326 116.357 39.3756C114.773 38.3855 113.407 37.1183 112.258 35.5738C111.149 34.0293 110.595 32.1879 110.595 30.0494C110.595 27.9109 111.11 26.01 112.139 24.3467C113.209 22.6834 114.674 21.3766 116.535 20.4261C118.397 19.4757 120.495 19.0005 122.832 19.0005H125.624C127.842 19.0005 129.881 19.5549 131.742 20.6638C133.643 21.733 135.148 23.2181 136.257 25.119C137.366 26.9802 137.92 29.0197 137.92 31.2374V31.4255C137.92 31.9777 137.472 32.4255 136.92 32.4255H130.604C130.052 32.4255 129.604 31.9777 129.604 31.4255V31.2374C129.604 30.1682 129.208 29.2573 128.416 28.5049C127.663 27.7129 126.733 27.3168 125.624 27.3168H122.832C121.565 27.3168 120.594 27.5545 119.921 28.0297C119.248 28.5049 118.911 29.1781 118.911 30.0494C118.911 30.7226 119.387 31.376 120.337 32.0096C121.287 32.6037 122.773 33.3759 124.792 34.3263C127.485 35.5936 129.762 36.8213 131.624 38.0093C133.485 39.1578 135.089 40.6428 136.435 42.4645C137.821 44.2862 138.514 46.4445 138.514 48.9394C138.514 51.1175 137.96 53.0975 136.851 54.8796C135.782 56.6221 134.316 58.0082 132.455 59.0378C130.594 60.0674 128.515 60.5823 126.218 60.5823H122.238C120.02 60.5823 117.961 60.0476 116.06 58.9784C114.199 57.8696 112.714 56.3845 111.605 54.5232C110.536 52.6223 110.001 50.563 110.001 48.3453V47.5633C110.001 47.011 110.449 46.5633 111.001 46.5633H117.317Z" fill="white"/>
<path d="M76 40C76 20.1177 59.8823 4 40 4C20.1177 4 4 20.1177 4 40C4 59.8823 20.1177 76 40 76V80C17.9086 80 0 62.0914 0 40C0 17.9086 17.9086 0 40 0C62.0914 0 80 17.9086 80 40C80 62.0914 62.0914 80 40 80V76C59.8823 76 76 59.8823 76 40Z" fill="#FA2C44"/>
<path d="M60 47C60 35.9543 51.0457 27 40 27C28.9543 27 20 35.9543 20 47C20 58.0457 28.9543 67 40 67V72C26.1929 72 15 60.8071 15 47C15 33.1929 26.1929 22 40 22C53.8071 22 65 33.1929 65 47C65 60.8071 53.8071 72 40 72V67C51.0457 67 60 58.0457 60 47Z" fill="#FA2C44"/>
<path d="M44 53C44 50.7909 42.2091 49 40 49C37.7909 49 36 50.7909 36 53C36 55.2091 37.7909 57 40 57V63C34.4772 63 30 58.5228 30 53C30 47.4772 34.4772 43 40 43C45.5228 43 50 47.4772 50 53C50 58.5228 45.5228 63 40 63V57C42.2091 57 44 55.2091 44 53Z" fill="#FA2C44"/>
</svg>
